<?xml version="1.0" encoding="UTF-8"?>
<svg id="Layer_2" data-name="Layer 2" xmlns="http://www.w3.org/2000/svg" viewBox="0 0 1417.7 812.31">
  <defs>
    <style>
      .cls-1 {
        fill: #ffb74d;
      }
    </style>
  </defs>
  <g id="Layer_2-2" data-name="Layer 2">
    <g>
      <g>
        <g>
          <path d="m224.18,345.81h85.97v38.47h-126.19v-204.01h124.74v38.47h-84.52v43.42h77.23v37.89h-77.23v45.76Z"/>
          <path d="m426.98,384.28l-68.48-204.01h43.72l49.89,156.84,49.49-156.84h44.01l-68.78,204.01h-49.85Z"/>
          <path d="m752.01,357.61c-20.6,20.5-45.66,30.75-75.19,30.75s-54.55-10.25-75.04-30.75c-20.5-20.5-30.75-45.61-30.75-75.34s10.25-54.84,30.75-75.34,45.51-30.75,75.04-30.75,54.59,10.25,75.19,30.75c20.59,20.5,30.89,45.61,30.89,75.34s-10.3,54.84-30.89,75.34Zm-122.11-27.4c12.63,12.53,28.27,18.8,46.92,18.8s34.29-6.27,46.92-18.8,18.94-28.51,18.94-47.94-6.32-35.46-18.94-48.09c-12.63-12.63-28.27-18.94-46.92-18.94s-34.29,6.32-46.92,18.94c-12.63,12.63-18.94,28.66-18.94,48.09s6.31,35.41,18.94,47.94Z"/>
          <path d="m976.93,180.27v38.47h-55.08v165.54h-40.22v-165.54h-54.79v-38.47h150.09Z"/>
          <path d="m1201.84,357.61c-20.6,20.5-45.66,30.75-75.19,30.75s-54.55-10.25-75.04-30.75c-20.5-20.5-30.75-45.61-30.75-75.34s10.25-54.84,30.75-75.34,45.51-30.75,75.04-30.75,54.59,10.25,75.19,30.75c20.59,20.5,30.89,45.61,30.89,75.34s-10.3,54.84-30.89,75.34h0Zm-122.11-27.4c12.63,12.53,28.27,18.8,46.92,18.8s34.29-6.27,46.92-18.8,18.94-28.51,18.94-47.94-6.32-35.46-18.94-48.09c-12.63-12.63-28.27-18.94-46.92-18.94s-34.29,6.32-46.92,18.94c-12.63,12.63-18.94,28.66-18.94,48.09s6.31,35.41,18.94,47.94Z"/>
        </g>
        <g>
          <path d="m272.87,468.85v11.85h-38.6v113.82h-12.57v-113.82h-38.6v-11.85h89.77Z"/>
          <path d="m329.96,502.6c13.29,0,24.03,4.7,32.22,14.09,8.2,9.4,12.3,20.5,12.3,33.3,0,1.32-.12,3.17-.36,5.56h-78.81c1.2,9.1,5.05,16.31,11.58,21.63,6.52,5.33,14.57,7.99,24.15,7.99,6.82,0,12.71-1.41,17.68-4.22s8.71-6.49,11.22-11.04l10.41,6.1c-3.95,6.35-9.33,11.37-16.16,15.08-6.82,3.71-14.6,5.57-23.34,5.57-14.12,0-25.61-4.43-34.47-13.28-8.86-8.86-13.29-20.11-13.29-33.75s4.37-24.59,13.11-33.57c8.74-8.98,19.99-13.46,33.75-13.46h.01Zm0,11.49c-9.33,0-17.14,2.78-23.43,8.35-6.28,5.56-10.03,12.78-11.22,21.63h66.96c-1.2-9.45-4.85-16.81-10.95-22.08-6.1-5.26-13.23-7.9-21.36-7.9h0Z"/>
          <path d="m450.78,596.68c-13.53,0-24.77-4.52-33.75-13.55-8.98-9.04-13.46-20.2-13.46-33.48s4.49-24.44,13.46-33.48c8.98-9.04,20.22-13.55,33.75-13.55,8.86,0,16.81,2.13,23.88,6.37,7.06,4.25,12.21,9.96,15.44,17.14l-9.69,5.57c-2.4-5.39-6.25-9.66-11.58-12.84-5.33-3.17-11.34-4.76-18.04-4.76-9.94,0-18.31,3.44-25.13,10.32s-10.23,15.29-10.23,25.22,3.41,18.34,10.23,25.22c6.82,6.88,15.2,10.32,25.13,10.32,6.7,0,12.68-1.58,17.95-4.76,5.26-3.17,9.39-7.45,12.39-12.84l9.87,5.74c-3.71,7.18-9.16,12.87-16.34,17.06s-15.14,6.28-23.88,6.28v.02Z"/>
          <path d="m565.67,502.6c10.89,0,19.48,3.32,25.76,9.96,6.28,6.64,9.42,15.59,9.42,26.84v55.11h-11.85v-55.11c0-8.02-2.13-14.24-6.37-18.67-4.25-4.43-10.26-6.64-18.04-6.64-8.62,0-15.62,2.72-21,8.17-5.39,5.45-8.08,13.85-8.08,25.22v47.04h-11.85v-125.67h11.85v49.91c6.7-10.77,16.75-16.16,30.16-16.16h0Z"/>
          <path d="m681.47,502.6c10.89,0,19.48,3.32,25.76,9.96,6.28,6.64,9.42,15.59,9.42,26.84v55.11h-11.85v-55.11c0-8.02-2.13-14.24-6.37-18.67-4.25-4.43-10.26-6.64-18.04-6.64-8.62,0-15.62,2.72-21,8.17-5.39,5.45-8.08,13.85-8.08,25.22v47.04h-11.85v-89.76h11.85v14c6.7-10.77,16.75-16.16,30.16-16.16h0Z"/>
          <path d="m830.56,583.12c-9.16,9.04-20.32,13.55-33.48,13.55s-24.33-4.52-33.48-13.55c-9.16-9.04-13.73-20.2-13.73-33.48s4.58-24.44,13.73-33.48c9.16-9.04,20.31-13.55,33.48-13.55s24.33,4.52,33.48,13.55c9.16,9.04,13.73,20.2,13.73,33.48s-4.58,24.45-13.73,33.48Zm-58.62-8.26c6.82,6.88,15.2,10.32,25.13,10.32s18.31-3.44,25.13-10.32,10.23-15.29,10.23-25.22-3.41-18.34-10.23-25.22c-6.82-6.88-15.2-10.32-25.13-10.32s-18.31,3.44-25.13,10.32-10.23,15.29-10.23,25.22,3.41,18.34,10.23,25.22Z"/>
          <path d="m879.66,594.52v-131.05h11.85v131.05h-11.85Z"/>
          <path d="m1007.57,583.12c-9.16,9.04-20.32,13.55-33.48,13.55s-24.33-4.52-33.48-13.55c-9.16-9.04-13.73-20.2-13.73-33.48s4.58-24.44,13.73-33.48c9.16-9.04,20.31-13.55,33.48-13.55s24.33,4.52,33.48,13.55c9.16,9.04,13.73,20.2,13.73,33.48s-4.58,24.45-13.73,33.48Zm-58.62-8.26c6.82,6.88,15.2,10.32,25.13,10.32s18.31-3.44,25.13-10.32,10.23-15.29,10.23-25.22-3.41-18.34-10.23-25.22c-6.82-6.88-15.2-10.32-25.13-10.32s-18.31,3.44-25.13,10.32-10.23,15.29-10.23,25.22,3.41,18.34,10.23,25.22Z"/>
          <path d="m1133.86,504.76h11.85v86.17c0,12.93-4.43,23.1-13.29,30.52-8.86,7.42-19.45,11.13-31.78,11.13-21.07,0-35.25-7.3-42.55-21.9l10.41-5.92c5.39,10.89,16.1,16.34,32.14,16.34,10.29,0,18.4-2.72,24.33-8.17,5.92-5.45,8.89-12.78,8.89-21.99v-14c-8.26,13.17-20.35,19.75-36.26,19.75-12.81,0-23.73-4.55-32.76-13.64-9.04-9.09-13.55-20.22-13.55-33.39s4.52-24.29,13.55-33.39c9.04-9.09,19.96-13.64,32.76-13.64,15.92,0,28.01,6.58,36.26,19.75v-17.62Zm-60.5,70.1c6.82,6.88,15.2,10.32,25.13,10.32s18.31-3.44,25.13-10.32,10.23-15.29,10.23-25.22-3.41-18.34-10.23-25.22c-6.82-6.88-15.2-10.32-25.13-10.32s-18.31,3.44-25.13,10.32-10.23,15.29-10.23,25.22,3.41,18.34,10.23,25.22Z"/>
          <path d="m1198.49,483.22c-1.68,1.68-3.71,2.51-6.1,2.51s-4.43-.84-6.1-2.51c-1.68-1.67-2.51-3.71-2.51-6.1s.84-4.43,2.51-6.1,3.71-2.51,6.1-2.51,4.43.84,6.1,2.51c1.67,1.68,2.51,3.71,2.51,6.1s-.84,4.43-2.51,6.1Zm-12.03,111.31v-89.76h11.85v89.76h-11.85Z"/>
          <path d="m1280.53,502.6c13.29,0,24.03,4.7,32.22,14.09,8.2,9.4,12.3,20.5,12.3,33.3,0,1.32-.12,3.17-.36,5.56h-78.81c1.2,9.1,5.05,16.31,11.58,21.63,6.52,5.33,14.57,7.99,24.15,7.99,6.82,0,12.71-1.41,17.68-4.22,4.97-2.81,8.71-6.49,11.22-11.04l10.41,6.1c-3.95,6.35-9.33,11.37-16.16,15.08-6.82,3.71-14.6,5.57-23.34,5.57-14.12,0-25.61-4.43-34.47-13.28-8.86-8.86-13.29-20.11-13.29-33.75s4.37-24.59,13.11-33.57c8.74-8.98,19.99-13.46,33.75-13.46h0Zm0,11.49c-9.33,0-17.14,2.78-23.43,8.35-6.28,5.56-10.03,12.78-11.22,21.63h66.96c-1.2-9.45-4.85-16.81-10.95-22.08-6.1-5.26-13.23-7.9-21.36-7.9h0Z"/>
          <path d="m1365.27,528.04c0,4,1.82,7.18,5.46,9.53,3.64,2.35,8.03,4.26,13.18,5.73,5.14,1.47,10.29,2.94,15.44,4.41s9.49,4.13,13.03,7.98,5.32,8.89,5.32,15.12c0,7.66-3.02,13.89-9.07,18.67-6.04,4.79-13.85,7.18-23.43,7.18-8.62,0-15.95-1.92-21.99-5.74-6.04-3.83-10.26-8.8-12.66-14.9l10.05-5.92c1.67,4.67,4.7,8.35,9.07,11.04s9.54,4.04,15.53,4.04,10.77-1.16,14.72-3.5c3.95-2.33,5.92-5.95,5.92-10.85,0-4.06-1.8-7.29-5.39-9.69-3.59-2.39-7.96-4.32-13.11-5.79s-10.29-2.94-15.44-4.41c-5.14-1.47-9.51-4.09-13.1-7.86-3.59-3.77-5.39-8.71-5.39-14.81,0-7.3,2.9-13.4,8.71-18.31,5.8-4.91,13.13-7.36,21.99-7.36,7.3,0,13.7,1.65,19.21,4.94,5.5,3.29,9.57,7.75,12.21,13.37l-9.87,5.75c-3.47-8.38-10.65-12.57-21.54-12.57-5.15,0-9.58,1.21-13.28,3.62-3.71,2.41-5.57,5.86-5.57,10.33h0Z"/>
        </g>
      </g>
      <polygon class="cls-1" points="22 18.99 22 793.31 492.49 793.31 492.49 812.31 0 812.31 0 0 492.49 0 492.49 18.99 22 18.99"/>
    </g>
  </g>
</svg>