<?xml version="1.0" encoding="UTF-8"?>
<svg id="Layer_2" data-name="Layer 2" xmlns="http://www.w3.org/2000/svg" viewBox="0 0 75.14 21.92">
  <defs>
    <style>
      .cls-1 {
        fill: #ffb74d;
      }
    </style>
  </defs>
  <g id="Layer_1-2" data-name="Layer 1">
    <g>
      <polygon class="cls-1" points=".52 .51 .52 21.41 11.74 21.41 11.74 21.92 0 21.92 0 0 11.74 0 11.74 .51 .52 .51"/>
      <g>
        <path d="m7.13,15.24h5.8v2.59H4.42V4.08h8.41v2.59h-5.7v2.93h5.21v2.56h-5.21v3.09Z"/>
        <path d="m20.81,17.84l-4.62-13.76h2.95l3.36,10.58,3.34-10.58h2.97l-4.64,13.76h-3.36Z"/>
        <path d="m42.73,16.04c-1.39,1.38-3.08,2.07-5.07,2.07s-3.68-.69-5.06-2.07c-1.38-1.38-2.07-3.08-2.07-5.08s.69-3.7,2.07-5.08,3.07-2.07,5.06-2.07,3.68.69,5.07,2.07c1.39,1.38,2.08,3.08,2.08,5.08s-.69,3.7-2.08,5.08Zm-8.23-1.85c.85.84,1.91,1.27,3.16,1.27s2.31-.42,3.16-1.27,1.28-1.92,1.28-3.23-.43-2.39-1.28-3.24c-.85-.85-1.91-1.28-3.16-1.28s-2.31.43-3.16,1.28c-.85.85-1.28,1.93-1.28,3.24s.43,2.39,1.28,3.23Z"/>
        <path d="m57.89,4.08v2.59h-3.71v11.16h-2.71V6.68h-3.69v-2.59h10.12Z"/>
        <path d="m73.06,16.04c-1.39,1.38-3.08,2.07-5.07,2.07s-3.68-.69-5.06-2.07c-1.38-1.38-2.07-3.08-2.07-5.08s.69-3.7,2.07-5.08,3.07-2.07,5.06-2.07,3.68.69,5.07,2.07c1.39,1.38,2.08,3.08,2.08,5.08s-.69,3.7-2.08,5.08h0Zm-8.23-1.85c.85.84,1.91,1.27,3.16,1.27s2.31-.42,3.16-1.27,1.28-1.92,1.28-3.23-.43-2.39-1.28-3.24c-.85-.85-1.91-1.28-3.16-1.28s-2.31.43-3.16,1.28c-.85.85-1.28,1.93-1.28,3.24s.43,2.39,1.28,3.23Z"/>
      </g>
    </g>
  </g>
</svg>